<svg xmlns="http://www.w3.org/2000/svg" viewBox="0 0 256 256"><path d="M83.8 86.4h40.5v82.3H83.8zm81.8 0v40.2l-39.9-40.2zm0 41.8v40.4h-39.9zm.9-41.8h40.7v82.3h-40.7zm82.1 0v41.1l-41.2-41.1z"/><radialGradient id="SVGID_1_" cx="139.395" cy="175.492" r="116.357" gradientTransform="matrix(1 0 0 -1 0 256)" gradientUnits="userSpaceOnUse"><stop offset=".122" stop-color="#f49f25"/><stop offset=".207" stop-color="#f3952e"/><stop offset=".371" stop-color="#ef7a3d"/><stop offset=".594" stop-color="#ea444a"/><stop offset=".678" stop-color="#e8214d"/></radialGradient><path fill="url(#SVGID_1_)" d="M164.9 127.5l-39.5 39.9V87.6z"/><radialGradient id="SVGID_2_" cx="203.852" cy="123.701" r="66.571" fx="197.12" fy="123.691" gradientTransform="matrix(.9823 0 0 -.9823 3.021 257.284)" gradientUnits="userSpaceOnUse"><stop offset=".231" stop-color="#e95e48"/><stop offset=".357" stop-color="#e95a49"/><stop offset=".481" stop-color="#e94f4a"/><stop offset=".604" stop-color="#e83a4b"/><stop offset=".678" stop-color="#e7224c"/></radialGradient><circle cx="228.6" cy="148.9" r="20.7" fill="url(#SVGID_2_)"/><radialGradient id="SVGID_3_" cx="-129.019" cy="132.902" r="84.146" gradientTransform="scale(1 -1) rotate(-45 -294.23 -166.073)" gradientUnits="userSpaceOnUse"><stop offset=".198" stop-color="#f9a970"/><stop offset=".298" stop-color="#f9a96e"/><stop offset=".398" stop-color="#f8a766"/><stop offset=".496" stop-color="#f7a557"/><stop offset=".594" stop-color="#f5a140"/><stop offset=".678" stop-color="#f49e25"/></radialGradient><path d="M75.5 96.4l-56.8 56.8c-15.2-15.7-15.1-40.8.4-56.3 15.6-15.6 40.7-15.8 56.4-.5z" fill="url(#SVGID_3_)"/><path d="M71.4 158.2c-15.5 15.5-40.6 15.7-56.3.4l56.8-56.8c15.2 15.8 15 40.9-.5 56.4z"/><path d="M165.6 127.9v-2.2m1.6.9l-1.2 1.2m-1.1-.3l-39.5 39.9V87.6z" fill="none"/></svg>