<svg version="1.1" id="Layer_1" xmlns="http://www.w3.org/2000/svg" x="0" y="0" viewBox="0 0 184.8 64.86" xml:space="preserve"><path d="M58.32.99h30.94v62.88H58.32zm62.52 0v30.77L90.36.99zm.01 32.01l-.01 30.87H90.36zm.71-32.01h31.08v62.88h-31.08zm62.69 0v31.44L152.81.99z"/><radialGradient id="SVGID_1_" cx="100.823" cy="-3.479" r="88.92" gradientUnits="userSpaceOnUse"><stop offset=".122" stop-color="#f49f25"/><stop offset=".207" stop-color="#f3952e"/><stop offset=".371" stop-color="#ef7a3d"/><stop offset=".594" stop-color="#ea444a"/><stop offset=".678" stop-color="#e8214d"/></radialGradient><path fill="url(#SVGID_1_)" d="M120.3 32.44L90.1 62.92V1.94z"/><radialGradient id="SVGID_2_" cx="150.233" cy="34.921" r="50.873" fx="145.088" fy="34.913" gradientTransform="translate(2.056 4.448) scale(.9823)" gradientUnits="userSpaceOnUse"><stop offset=".231" stop-color="#e95e48"/><stop offset=".357" stop-color="#e95a49"/><stop offset=".481" stop-color="#e94f4a"/><stop offset=".604" stop-color="#e83a4b"/><stop offset=".678" stop-color="#e7224c"/></radialGradient><circle cx="169" cy="48.8" r="15.79" fill="url(#SVGID_2_)"/><radialGradient id="SVGID_3_" cx="-158.05" cy="13.914" r="64.305" gradientTransform="rotate(45.001 -39.566 217.033)" gradientUnits="userSpaceOnUse"><stop offset=".198" stop-color="#f9a970"/><stop offset=".298" stop-color="#f9a96e"/><stop offset=".398" stop-color="#f8a766"/><stop offset=".496" stop-color="#f7a557"/><stop offset=".594" stop-color="#f5a140"/><stop offset=".678" stop-color="#f49e25"/></radialGradient><path d="M52.04 8.65L8.65 52.03C-3 40.03-2.89 20.85 8.98 8.98 20.85-2.88 40.04-2.99 52.04 8.65z" fill="url(#SVGID_3_)"/><path d="M48.86 55.88C37 67.74 17.83 67.86 5.83 56.22L49.2 12.84c11.64 12.01 11.53 31.17-.34 43.04z"/><path d="M120.85 32.77v-1.73m1.22.72l-.88.89m-.84-.21l-30.2 30.48V1.94z" fill="none"/></svg>